<?xml version="1.0" standalone="no"?>
<!DOCTYPE svg PUBLIC "-//W3C//DTD SVG 20010904//EN"
 "http://www.w3.org/TR/2001/REC-SVG-20010904/DTD/svg10.dtd">
<svg version="1.0" xmlns="http://www.w3.org/2000/svg"
 width="1024.000000pt" height="1024.000000pt" viewBox="0 0 1024.000000 1024.000000"
 preserveAspectRatio="xMidYMid meet">

<g transform="translate(0.000000,1024.000000) scale(0.100000,-0.100000)"
fill="#000000" stroke="none">
<path d="M4730 10230 c0 -6 -35 -10 -90 -10 -49 0 -90 -4 -90 -9 0 -5 -49 -12
-110 -16 -60 -3 -110 -10 -110 -14 0 -5 -42 -11 -92 -15 -51 -4 -94 -11 -96
-16 -2 -6 -21 -10 -43 -10 -21 0 -39 -4 -39 -9 0 -5 -34 -12 -75 -16 -41 -4
-75 -11 -75 -15 0 -4 -25 -11 -55 -15 -30 -3 -55 -11 -55 -16 0 -5 -13 -9 -30
-9 -16 0 -30 -4 -30 -10 0 -5 -27 -12 -60 -16 -33 -4 -60 -10 -60 -15 0 -4
-20 -11 -45 -15 -25 -3 -45 -10 -45 -15 0 -5 -11 -9 -24 -9 -13 0 -26 -5 -28
-11 -2 -6 -25 -13 -51 -16 -26 -3 -47 -9 -47 -14 0 -5 -18 -12 -40 -15 -22 -4
-40 -10 -40 -15 0 -5 -9 -9 -20 -9 -11 0 -20 -4 -20 -9 0 -5 -18 -12 -40 -16
-22 -4 -40 -10 -40 -15 0 -4 -16 -11 -35 -14 -19 -4 -35 -11 -35 -16 0 -6 -11
-10 -25 -10 -14 0 -25 -4 -25 -9 0 -5 -13 -12 -30 -16 -16 -4 -30 -10 -30 -15
0 -5 -13 -11 -30 -15 -16 -4 -30 -11 -30 -16 0 -5 -11 -9 -25 -9 -14 0 -25 -4
-25 -9 0 -5 -11 -12 -25 -15 -14 -4 -25 -10 -25 -15 0 -5 -13 -12 -30 -16 -17
-4 -30 -11 -30 -16 0 -5 -9 -9 -20 -9 -11 0 -20 -4 -20 -9 0 -5 -13 -12 -30
-16 -16 -4 -30 -10 -30 -15 0 -4 -12 -11 -27 -15 -15 -3 -34 -15 -43 -25 -9
-10 -28 -22 -43 -25 -15 -4 -27 -11 -27 -16 0 -5 -9 -9 -20 -9 -11 0 -23 -7
-26 -15 -4 -8 -15 -15 -25 -15 -10 0 -19 -4 -19 -10 0 -5 -7 -10 -15 -10 -9 0
-18 -7 -21 -15 -4 -8 -15 -15 -25 -15 -11 0 -22 -7 -25 -15 -4 -8 -12 -15 -20
-15 -8 0 -14 -4 -14 -9 0 -5 -10 -13 -22 -17 -12 -3 -28 -13 -36 -20 -7 -8
-19 -14 -25 -14 -7 0 -21 -11 -31 -25 -10 -14 -25 -25 -32 -25 -8 0 -14 -4
-14 -10 0 -5 -10 -12 -23 -15 -13 -4 -31 -17 -41 -31 -11 -13 -25 -24 -33 -24
-8 0 -24 -11 -37 -25 -13 -14 -27 -25 -31 -25 -4 0 -18 -11 -31 -25 -13 -14
-28 -25 -33 -25 -6 0 -27 -17 -48 -39 -22 -21 -49 -41 -61 -45 -12 -4 -22 -11
-22 -15 0 -12 -48 -61 -59 -61 -6 0 -60 -49 -120 -110 -60 -60 -116 -110 -124
-110 -9 0 -19 -9 -22 -20 -3 -11 -11 -20 -16 -20 -5 0 -9 -5 -9 -11 0 -6 -43
-53 -95 -105 -52 -52 -95 -99 -95 -104 0 -6 -18 -27 -40 -49 -22 -21 -40 -42
-40 -46 0 -3 -18 -24 -40 -46 -22 -22 -40 -44 -40 -50 0 -5 -11 -20 -25 -33
-14 -13 -25 -27 -25 -31 0 -4 -11 -18 -25 -31 -14 -13 -25 -29 -25 -37 0 -8
-11 -22 -24 -33 -14 -10 -27 -28 -31 -41 -3 -13 -10 -23 -15 -23 -6 0 -10 -6
-10 -14 0 -7 -11 -22 -25 -32 -14 -10 -25 -24 -25 -31 0 -6 -6 -18 -14 -25 -7
-8 -17 -24 -20 -36 -4 -12 -12 -22 -17 -22 -5 0 -9 -6 -9 -14 0 -8 -7 -16 -15
-20 -8 -3 -15 -14 -15 -25 0 -10 -7 -21 -15 -25 -8 -3 -15 -12 -15 -21 0 -8
-4 -15 -10 -15 -5 0 -10 -9 -10 -20 0 -11 -4 -20 -10 -20 -5 0 -10 -6 -10 -14
0 -8 -6 -21 -14 -28 -7 -8 -17 -25 -21 -38 -4 -14 -16 -32 -26 -41 -10 -8 -21
-27 -24 -42 -4 -15 -11 -27 -15 -27 -4 0 -11 -12 -15 -27 -3 -15 -14 -34 -24
-42 -10 -9 -21 -33 -25 -53 -4 -21 -11 -38 -15 -38 -5 0 -12 -11 -15 -25 -4
-14 -11 -25 -16 -25 -6 0 -10 -7 -10 -15 0 -8 -4 -15 -9 -15 -5 0 -11 -18 -15
-40 -3 -22 -10 -40 -15 -40 -5 0 -12 -13 -16 -30 -4 -16 -11 -30 -16 -30 -5 0
-9 -11 -9 -25 0 -14 -4 -25 -10 -25 -5 0 -13 -18 -16 -40 -4 -22 -10 -40 -15
-40 -4 0 -11 -16 -15 -35 -3 -19 -10 -35 -15 -35 -5 0 -9 -9 -9 -20 0 -11 -4
-20 -9 -20 -5 0 -11 -18 -15 -40 -3 -22 -10 -40 -15 -40 -5 0 -12 -22 -16 -50
-4 -27 -11 -50 -16 -50 -5 0 -9 -11 -9 -25 0 -14 -4 -25 -9 -25 -5 0 -12 -20
-15 -45 -4 -25 -11 -45 -16 -45 -5 0 -12 -27 -16 -60 -4 -33 -11 -60 -15 -60
-5 0 -9 -13 -9 -30 0 -16 -4 -30 -9 -30 -4 0 -11 -23 -14 -52 -4 -28 -11 -54
-16 -57 -5 -3 -12 -39 -16 -78 -4 -40 -11 -73 -16 -73 -5 0 -9 -18 -9 -39 0
-22 -4 -41 -10 -43 -5 -1 -12 -45 -16 -95 -4 -51 -10 -93 -15 -93 -4 0 -11
-49 -14 -110 -4 -60 -11 -110 -16 -110 -5 0 -9 -40 -9 -90 0 -55 -4 -90 -10
-90 -7 0 -9 -126 -6 -392 5 -412 12 -568 25 -568 5 0 12 -54 16 -120 4 -66 11
-120 15 -120 5 0 12 -40 16 -90 3 -49 10 -90 15 -90 5 0 9 -18 9 -40 0 -22 4
-40 9 -40 6 0 13 -31 17 -70 3 -38 10 -70 14 -70 4 0 10 -27 14 -60 4 -33 11
-60 16 -60 6 0 10 -13 10 -30 0 -16 4 -30 9 -30 5 0 13 -25 16 -55 4 -30 11
-55 15 -55 5 0 11 -22 15 -50 4 -27 11 -50 16 -50 5 0 9 -11 9 -25 0 -14 4
-25 9 -25 6 0 13 -20 17 -45 3 -25 10 -45 14 -45 4 0 10 -18 14 -40 3 -22 11
-40 16 -40 6 0 10 -11 10 -25 0 -14 4 -25 10 -25 5 0 13 -18 16 -40 4 -22 10
-40 14 -40 5 0 11 -14 15 -30 4 -17 11 -30 16 -30 5 0 9 -11 9 -25 0 -14 4
-25 10 -25 5 0 12 -16 16 -35 3 -19 10 -35 14 -35 5 0 11 -14 15 -30 4 -17 11
-30 16 -30 5 0 9 -11 9 -25 0 -14 4 -25 9 -25 5 0 12 -14 16 -30 4 -17 11 -30
16 -30 5 0 11 -11 15 -25 3 -14 10 -25 15 -25 5 0 9 -7 9 -15 0 -8 4 -15 10
-15 5 0 12 -16 16 -35 3 -19 10 -35 14 -35 4 0 11 -12 15 -27 3 -15 15 -34 25
-43 10 -9 22 -28 25 -43 4 -15 11 -27 15 -27 4 0 11 -11 14 -25 4 -14 11 -25
16 -25 6 0 10 -7 10 -15 0 -8 4 -15 10 -15 5 0 12 -11 16 -25 3 -14 10 -25 14
-25 4 0 11 -11 14 -25 4 -14 11 -25 16 -25 6 0 10 -7 10 -15 0 -8 4 -15 10
-15 5 0 12 -11 16 -24 3 -14 12 -27 20 -30 8 -3 14 -14 14 -25 0 -11 9 -22 20
-26 11 -3 20 -12 20 -19 0 -7 9 -23 20 -36 11 -13 20 -29 20 -36 0 -7 9 -15
19 -19 11 -3 23 -16 27 -28 4 -12 17 -32 30 -44 13 -12 24 -27 24 -33 0 -6 11
-21 24 -33 13 -12 26 -32 30 -44 4 -12 16 -25 26 -28 10 -3 22 -15 26 -27 3
-11 28 -42 55 -68 27 -26 49 -51 49 -55 0 -5 28 -38 68 -77 5 -6 23 -24 40
-40 16 -17 34 -35 40 -40 5 -6 24 -24 41 -40 17 -16 31 -33 31 -38 0 -5 9 -12
20 -15 11 -3 20 -13 20 -21 0 -8 6 -14 14 -14 8 0 18 -9 21 -20 3 -11 10 -20
15 -20 7 0 24 -15 77 -72 7 -7 18 -18 25 -25 7 -6 22 -23 33 -37 11 -14 26
-25 33 -26 8 0 33 -20 58 -45 24 -25 50 -45 58 -45 8 0 17 -9 21 -19 3 -11 15
-23 26 -26 10 -4 19 -11 19 -16 0 -5 6 -9 14 -9 7 0 22 -11 32 -25 10 -14 24
-25 31 -25 7 0 21 -9 30 -20 10 -11 25 -20 35 -20 9 0 19 -9 23 -19 3 -11 16
-23 28 -27 12 -4 32 -17 44 -30 12 -13 27 -24 33 -24 5 0 10 -4 10 -10 0 -5
11 -12 25 -16 14 -3 25 -10 25 -14 0 -5 10 -12 23 -16 12 -4 29 -14 37 -24 8
-9 23 -19 33 -23 9 -3 17 -11 17 -17 0 -5 9 -10 20 -10 11 0 23 -7 26 -15 4
-8 12 -15 20 -15 8 0 14 -4 14 -9 0 -5 16 -12 35 -15 19 -4 35 -11 35 -16 0
-5 11 -12 25 -16 14 -3 25 -10 25 -15 0 -5 7 -9 15 -9 8 0 15 -4 15 -10 0 -5
11 -12 25 -16 14 -3 25 -10 25 -14 0 -5 13 -11 30 -15 17 -4 30 -11 30 -16 0
-5 7 -9 15 -9 8 0 15 -4 15 -9 0 -5 16 -12 35 -15 19 -4 35 -11 35 -15 0 -5
11 -12 25 -15 14 -4 25 -11 25 -16 0 -6 9 -10 20 -10 11 0 20 -4 20 -9 0 -5
16 -12 35 -15 19 -4 35 -11 35 -16 0 -4 13 -11 30 -15 16 -4 30 -11 30 -16 0
-5 7 -9 15 -9 8 0 15 -4 15 -9 0 -5 18 -11 40 -15 22 -3 40 -10 40 -15 0 -5
18 -12 40 -16 22 -4 40 -11 40 -16 0 -5 9 -9 20 -9 11 0 20 -4 20 -9 0 -6 20
-13 45 -17 25 -3 45 -10 45 -15 0 -5 18 -12 40 -15 22 -4 40 -10 40 -15 0 -5
11 -9 25 -9 14 0 25 -4 25 -9 0 -5 23 -12 50 -16 28 -4 50 -10 50 -15 0 -4 25
-11 55 -15 30 -3 55 -11 55 -16 0 -5 11 -9 25 -9 14 0 25 -4 25 -9 0 -5 25
-12 55 -16 30 -3 55 -10 55 -15 0 -5 32 -12 70 -16 39 -3 70 -11 70 -15 0 -5
16 -9 35 -9 19 0 35 -4 35 -9 0 -5 36 -12 80 -16 44 -4 80 -11 80 -16 0 -5 20
-9 45 -9 25 0 45 -4 45 -9 0 -5 53 -12 118 -16 69 -4 120 -12 124 -19 10 -16
1126 -16 1136 0 4 7 56 15 125 19 64 4 117 11 117 16 0 5 18 9 40 9 22 0 40 4
40 9 0 5 41 12 90 15 50 4 90 12 90 17 0 5 18 9 40 9 22 0 40 4 40 9 0 5 29
13 65 16 36 4 65 11 65 15 0 4 25 11 55 15 30 3 55 11 55 16 0 5 11 9 25 9 14
0 25 4 25 9 0 5 25 12 55 16 30 3 55 10 55 15 0 4 23 11 50 15 28 4 50 11 50
16 0 5 9 9 20 9 11 0 20 4 20 9 0 5 23 12 50 16 28 4 50 11 50 16 0 5 18 12
40 15 22 4 40 10 40 15 0 5 7 9 15 9 8 0 15 4 15 9 0 5 18 11 40 15 22 3 40
11 40 16 0 5 18 13 40 16 22 4 40 10 40 15 0 5 7 9 15 9 8 0 15 4 15 9 0 5 16
12 35 15 19 4 35 11 35 15 0 5 18 11 40 15 22 3 40 11 40 16 0 6 7 10 15 10 8
0 15 4 15 9 0 5 14 12 30 16 17 4 30 11 30 16 0 5 11 11 25 15 14 3 25 10 25
15 0 5 7 9 15 9 8 0 15 4 15 9 0 5 16 12 35 15 19 4 35 11 35 15 0 5 11 12 25
15 14 4 25 11 25 16 0 6 7 10 15 10 8 0 15 4 15 9 0 5 14 12 30 16 17 4 30 11
30 16 0 5 11 11 25 15 14 3 25 10 25 15 0 5 7 9 15 9 8 0 15 4 15 10 0 5 11
12 25 16 14 3 25 10 25 14 0 5 10 12 23 16 12 4 29 14 37 24 8 9 23 19 33 23
9 3 17 11 17 17 0 5 9 10 20 10 11 0 23 7 26 15 4 8 10 15 16 15 5 0 16 6 23
13 33 29 45 37 53 37 5 0 18 11 28 25 10 14 24 25 31 25 6 0 18 6 25 14 8 7
24 16 35 20 12 4 25 16 28 26 3 10 16 22 28 26 12 4 38 24 58 45 20 22 41 39
48 39 13 0 61 48 61 61 0 4 10 11 22 15 12 4 62 47 110 95 48 49 92 89 98 89
5 0 10 5 10 10 0 13 77 90 90 90 6 0 10 7 10 15 0 8 7 15 15 15 8 0 15 5 15
10 0 6 29 39 65 74 36 35 65 66 65 70 0 7 17 30 38 49 58 54 72 70 72 78 0 6
15 25 34 42 18 18 36 42 40 54 4 12 16 25 26 28 10 3 22 16 26 28 4 11 13 27
20 35 8 7 14 19 14 25 0 7 11 21 25 31 14 10 25 23 25 28 0 5 6 16 13 23 29
33 37 45 37 54 0 5 7 11 15 15 8 3 15 14 15 25 0 10 7 21 15 25 8 3 15 11 15
17 0 6 8 19 19 28 10 9 21 26 25 39 4 12 11 22 16 22 4 0 11 11 14 25 4 14 11
25 16 25 6 0 10 7 10 15 0 8 4 15 9 15 5 0 12 13 16 30 4 16 11 30 16 30 5 0
11 11 15 25 3 14 10 25 15 25 5 0 9 7 9 15 0 8 4 15 10 15 5 0 12 11 16 25 3
14 10 25 15 25 4 0 11 16 15 35 3 19 10 35 15 35 5 0 9 7 9 15 0 8 4 15 9 15
5 0 12 11 15 25 4 14 10 25 15 25 5 0 12 14 16 30 4 17 11 30 16 30 5 0 9 11
9 25 0 14 4 25 9 25 5 0 12 13 16 30 4 16 11 30 15 30 5 0 12 16 16 35 3 19
10 35 15 35 5 0 9 9 9 20 0 11 4 20 9 20 5 0 12 16 15 35 4 19 11 35 16 35 4
0 11 13 15 30 4 16 11 30 16 30 5 0 9 11 9 25 0 14 4 25 9 25 5 0 11 18 15 40
3 22 10 40 15 40 5 0 12 23 16 50 4 28 11 50 16 50 5 0 9 9 9 20 0 11 4 20 9
20 5 0 12 22 16 50 4 28 11 50 15 50 5 0 12 25 15 55 4 30 11 55 16 55 5 0 9
11 9 25 0 14 4 25 9 25 5 0 12 25 16 55 3 30 10 55 15 55 4 0 11 29 15 65 3
36 11 65 16 65 5 0 9 18 9 40 0 22 4 40 9 40 5 0 13 41 17 90 3 50 10 90 15
90 5 0 9 18 9 40 0 22 4 40 9 40 5 0 12 53 16 117 4 69 12 121 19 125 16 10
16 1126 0 1136 -7 4 -15 54 -19 115 -4 59 -11 107 -16 107 -5 0 -9 25 -9 55 0
30 -4 55 -9 55 -5 0 -12 36 -16 80 -4 44 -11 80 -16 80 -5 0 -9 16 -9 35 0 19
-4 35 -9 35 -4 0 -12 32 -15 70 -4 39 -11 70 -16 70 -5 0 -12 25 -15 55 -4 30
-11 55 -16 55 -5 0 -9 16 -9 35 0 19 -4 35 -9 35 -5 0 -12 20 -15 45 -4 25
-11 45 -16 45 -4 0 -11 23 -15 50 -4 28 -11 50 -16 50 -5 0 -9 11 -9 25 0 14
-4 25 -9 25 -5 0 -11 18 -15 40 -3 22 -10 40 -15 40 -5 0 -12 20 -15 45 -4 25
-11 45 -17 45 -5 0 -9 9 -9 20 0 11 -4 20 -9 20 -5 0 -12 18 -16 40 -4 22 -10
40 -15 40 -5 0 -11 18 -15 40 -4 22 -11 40 -16 40 -5 0 -9 7 -9 15 0 8 -4 15
-9 15 -5 0 -12 14 -16 30 -4 17 -11 30 -15 30 -5 0 -12 16 -16 35 -3 19 -10
35 -15 35 -5 0 -9 9 -9 20 0 11 -4 20 -10 20 -5 0 -12 11 -16 25 -3 14 -10 25
-15 25 -4 0 -11 16 -15 35 -3 19 -10 35 -15 35 -5 0 -9 7 -9 15 0 8 -4 15 -9
15 -5 0 -12 14 -16 30 -4 17 -10 30 -15 30 -4 0 -11 11 -14 25 -4 14 -11 25
-16 25 -6 0 -10 7 -10 15 0 8 -4 15 -9 15 -5 0 -12 11 -15 25 -4 14 -11 25
-16 25 -5 0 -12 16 -16 35 -3 19 -10 35 -15 35 -5 0 -9 6 -9 14 0 8 -7 16 -15
20 -8 3 -15 14 -15 25 0 10 -7 21 -15 25 -8 3 -15 11 -15 17 0 6 -8 19 -19 28
-10 9 -21 26 -25 39 -4 12 -11 22 -16 22 -4 0 -11 11 -14 25 -4 14 -11 25 -16
25 -6 0 -10 5 -10 10 0 6 -11 21 -24 33 -13 12 -26 32 -30 44 -4 12 -16 25
-27 28 -10 4 -19 14 -19 23 0 10 -9 25 -20 35 -11 9 -20 23 -20 30 0 7 -9 19
-20 27 -11 8 -20 20 -20 28 0 7 -7 15 -15 18 -8 3 -17 14 -20 24 -3 11 -15 22
-26 25 -10 4 -19 13 -19 21 0 8 -24 38 -54 67 -29 29 -56 63 -60 75 -4 11 -16
24 -27 27 -10 4 -19 10 -19 15 0 5 -14 22 -31 38 -17 16 -36 35 -43 41 -6 6
-17 17 -24 24 -7 6 -26 25 -42 40 -17 16 -30 32 -30 37 0 5 -9 12 -20 15 -11
3 -20 13 -20 21 0 8 -6 14 -14 14 -8 0 -18 9 -21 20 -3 11 -10 20 -15 20 -5 0
-22 14 -38 31 -65 68 -109 109 -119 109 -4 0 -24 18 -43 40 -19 22 -41 40 -48
40 -14 0 -62 47 -62 61 0 4 -10 11 -22 15 -13 4 -33 17 -45 30 -12 13 -27 24
-33 24 -6 0 -21 11 -33 24 -12 13 -32 26 -44 30 -12 4 -25 16 -28 27 -4 10
-12 19 -19 19 -7 0 -23 9 -36 20 -13 11 -29 20 -36 20 -7 0 -16 9 -19 20 -4
11 -15 20 -26 20 -11 0 -22 6 -25 14 -3 8 -16 17 -30 20 -13 4 -24 11 -24 16
0 6 -7 10 -15 10 -8 0 -15 4 -15 10 0 5 -11 12 -25 16 -14 3 -25 10 -25 14 0
4 -11 11 -25 14 -14 4 -25 11 -25 16 0 6 -7 10 -15 10 -8 0 -15 5 -15 10 0 6
-6 10 -14 10 -8 0 -21 6 -28 14 -8 7 -25 17 -38 21 -14 4 -32 16 -41 26 -8 10
-27 21 -42 24 -15 4 -27 11 -27 15 0 4 -16 11 -35 14 -19 4 -35 11 -35 16 0 6
-7 10 -15 10 -8 0 -15 4 -15 9 0 5 -11 12 -25 15 -14 4 -25 10 -25 15 0 5 -13
12 -30 16 -16 4 -30 11 -30 16 0 5 -11 9 -25 9 -14 0 -25 4 -25 9 0 5 -13 12
-30 16 -16 4 -30 10 -30 15 0 4 -16 11 -35 14 -19 4 -35 11 -35 16 0 6 -11 10
-25 10 -14 0 -25 4 -25 9 0 5 -13 12 -30 16 -16 4 -30 10 -30 15 0 4 -18 10
-40 14 -22 3 -40 11 -40 16 0 6 -11 10 -25 10 -14 0 -25 4 -25 10 0 5 -18 13
-40 16 -22 4 -40 10 -40 14 0 4 -20 11 -45 14 -25 4 -45 11 -45 17 0 5 -11 9
-25 9 -14 0 -25 4 -25 9 0 5 -22 12 -50 16 -27 4 -50 10 -50 15 0 4 -25 11
-55 15 -30 3 -55 11 -55 16 0 5 -13 9 -30 9 -16 0 -30 4 -30 10 0 5 -27 12
-60 16 -33 4 -60 10 -60 14 0 4 -31 11 -70 14 -38 4 -70 11 -70 17 0 5 -18 9
-40 9 -22 0 -40 4 -40 9 0 5 -40 12 -90 15 -49 4 -90 11 -90 16 0 4 -54 11
-120 15 -66 4 -120 11 -120 16 0 13 -156 20 -567 25 -267 3 -393 1 -393 -6z
m273 -262 c4 -10 8 -9 17 2 9 11 13 12 17 3 6 -15 43 -17 43 -3 0 6 58 10 155
10 85 0 155 -4 155 -8 0 -5 77 -12 172 -16 95 -4 175 -11 178 -15 3 -5 51 -12
108 -16 56 -4 102 -11 102 -16 0 -5 20 -9 45 -9 25 0 45 -4 45 -9 0 -5 34 -12
75 -16 41 -4 75 -10 75 -15 0 -4 32 -11 70 -14 39 -4 70 -11 70 -17 0 -5 11
-9 25 -9 14 0 25 -4 25 -9 0 -4 23 -11 52 -14 28 -4 54 -10 57 -15 3 -5 32
-12 64 -16 31 -4 57 -12 57 -17 0 -5 9 -9 20 -9 11 0 20 -4 20 -9 0 -5 23 -12
50 -16 28 -4 50 -10 50 -15 0 -4 18 -10 40 -14 22 -3 40 -11 40 -16 0 -6 11
-10 25 -10 14 0 25 -4 25 -9 0 -5 18 -11 40 -15 22 -3 40 -11 40 -16 0 -5 18
-13 40 -16 22 -4 40 -10 40 -15 0 -5 7 -9 15 -9 8 0 15 -4 15 -9 0 -5 14 -12
30 -16 17 -4 30 -10 30 -15 0 -4 18 -10 40 -14 22 -3 40 -11 40 -16 0 -6 9
-10 20 -10 11 0 20 -4 20 -9 0 -5 14 -12 30 -16 17 -4 30 -10 30 -15 0 -5 14
-11 30 -15 17 -4 30 -11 30 -16 0 -5 9 -9 20 -9 11 0 20 -4 20 -10 0 -5 7 -10
15 -10 9 0 18 -6 21 -14 3 -8 21 -17 40 -20 19 -4 34 -11 34 -16 0 -6 7 -10
15 -10 8 0 15 -4 15 -10 0 -5 6 -10 14 -10 8 0 21 -6 28 -14 8 -7 25 -17 38
-21 14 -4 32 -16 40 -25 8 -9 25 -20 38 -24 12 -4 22 -11 22 -16 0 -4 11 -11
25 -14 14 -4 25 -11 25 -16 0 -6 6 -10 14 -10 8 0 16 -7 20 -15 3 -8 14 -15
25 -15 10 0 21 -7 25 -15 3 -8 11 -15 17 -15 6 0 19 -8 28 -19 9 -10 26 -21
39 -25 12 -4 22 -11 22 -16 0 -4 11 -11 24 -14 14 -3 28 -15 31 -26 3 -11 16
-22 29 -26 12 -3 30 -16 40 -30 11 -13 25 -24 32 -24 8 0 14 -4 14 -9 0 -5 9
-12 19 -16 11 -3 23 -15 26 -26 4 -10 13 -19 21 -19 8 0 32 -18 54 -40 22 -22
44 -40 49 -40 5 0 23 -14 39 -31 37 -39 42 -44 81 -81 17 -16 31 -34 31 -39 0
-5 7 -9 16 -9 15 0 164 -141 164 -155 0 -4 13 -20 29 -37 30 -32 32 -34 77
-79 37 -36 54 -57 54 -64 0 -3 18 -23 40 -44 22 -21 40 -43 40 -49 0 -7 4 -12
9 -12 5 0 12 -9 16 -19 3 -11 15 -23 26 -26 10 -4 19 -13 19 -20 0 -8 14 -28
30 -45 17 -17 30 -35 30 -40 0 -6 4 -10 9 -10 5 0 13 -10 17 -22 4 -13 17 -33
30 -45 13 -12 24 -29 24 -36 0 -8 7 -17 15 -21 8 -3 15 -10 15 -16 0 -10 8
-21 38 -55 6 -7 12 -18 12 -24 0 -6 5 -11 10 -11 6 0 10 -6 10 -14 0 -8 6 -21
14 -28 7 -8 17 -24 20 -36 4 -12 12 -22 17 -22 5 0 9 -7 9 -15 0 -8 5 -15 10
-15 6 0 10 -6 10 -14 0 -8 6 -21 14 -28 7 -8 17 -25 21 -38 4 -14 16 -32 26
-41 10 -8 21 -27 24 -42 4 -15 11 -27 15 -27 4 0 11 -11 14 -25 4 -14 11 -25
16 -25 6 0 10 -7 10 -15 0 -8 4 -15 9 -15 5 0 12 -13 16 -30 4 -16 10 -30 15
-30 4 0 11 -16 14 -35 4 -19 11 -35 16 -35 6 0 10 -7 10 -15 0 -8 4 -15 9 -15
5 0 12 -13 16 -30 4 -16 10 -30 15 -30 4 0 11 -18 15 -40 4 -22 11 -40 16 -40
5 0 9 -9 9 -20 0 -11 4 -20 10 -20 5 0 13 -18 16 -40 4 -22 10 -40 14 -40 5 0
11 -13 15 -30 4 -16 11 -30 16 -30 5 0 9 -11 9 -25 0 -14 4 -25 9 -25 5 0 11
-18 15 -40 3 -22 10 -40 15 -40 5 0 12 -20 15 -45 4 -25 11 -45 17 -45 5 0 9
-11 9 -25 0 -14 4 -25 9 -25 5 0 12 -22 16 -50 4 -27 10 -50 15 -50 4 0 11
-25 15 -55 3 -30 11 -55 16 -55 5 0 9 -15 9 -34 0 -19 5 -36 10 -38 6 -2 13
-27 17 -56 3 -28 9 -52 13 -52 4 0 11 -31 14 -70 4 -38 11 -70 17 -70 5 0 9
-18 9 -40 0 -22 4 -40 9 -40 5 0 12 -43 16 -95 4 -52 10 -95 15 -95 4 0 11
-54 15 -120 4 -66 11 -120 16 -120 5 0 9 -47 9 -105 0 -63 4 -105 10 -105 6 0
10 -100 10 -280 0 -180 -4 -280 -10 -280 -6 0 -10 -42 -10 -105 0 -58 -4 -105
-9 -105 -5 0 -12 -54 -16 -120 -4 -66 -10 -120 -15 -120 -4 0 -11 -43 -15 -95
-4 -52 -11 -95 -16 -95 -5 0 -9 -18 -9 -40 0 -22 -4 -40 -9 -40 -5 0 -12 -29
-16 -65 -3 -36 -10 -65 -15 -65 -4 0 -11 -29 -15 -65 -3 -36 -11 -65 -16 -65
-5 0 -9 -15 -9 -34 0 -19 -5 -36 -10 -38 -6 -2 -13 -27 -17 -56 -3 -28 -9 -52
-13 -52 -4 0 -11 -20 -14 -45 -4 -25 -11 -45 -17 -45 -5 0 -9 -11 -9 -25 0
-14 -4 -25 -9 -25 -5 0 -11 -18 -15 -40 -3 -22 -10 -40 -15 -40 -5 0 -12 -23
-16 -50 -4 -28 -11 -50 -16 -50 -5 0 -9 -7 -9 -15 0 -8 -4 -15 -9 -15 -5 0
-11 -18 -15 -40 -3 -22 -10 -40 -15 -40 -5 0 -11 -18 -15 -40 -3 -22 -11 -40
-16 -40 -6 0 -10 -7 -10 -15 0 -8 -4 -15 -9 -15 -5 0 -11 -18 -15 -40 -3 -22
-10 -40 -16 -40 -5 0 -12 -16 -16 -35 -3 -19 -10 -35 -15 -35 -5 0 -9 -7 -9
-15 0 -8 -4 -15 -9 -15 -5 0 -12 -14 -16 -30 -4 -17 -11 -30 -15 -30 -5 0 -12
-16 -16 -35 -4 -21 -13 -37 -25 -40 -11 -4 -21 -20 -25 -41 -3 -19 -10 -34
-14 -34 -5 0 -11 -13 -15 -30 -4 -16 -11 -30 -16 -30 -5 0 -9 -7 -9 -15 0 -8
-4 -15 -10 -15 -5 0 -12 -11 -16 -25 -3 -14 -10 -25 -14 -25 -4 0 -11 -11 -14
-25 -4 -14 -11 -25 -16 -25 -6 0 -10 -7 -10 -15 0 -8 -4 -15 -9 -15 -5 0 -13
-10 -17 -22 -3 -12 -13 -28 -20 -36 -8 -7 -14 -20 -14 -27 0 -8 -9 -17 -20
-20 -11 -4 -20 -15 -20 -26 0 -11 -6 -22 -14 -25 -8 -3 -17 -16 -20 -30 -4
-13 -11 -24 -16 -24 -6 0 -10 -5 -10 -11 0 -7 -11 -22 -25 -35 -14 -13 -25
-29 -25 -37 0 -8 -11 -23 -25 -33 -14 -10 -25 -24 -25 -31 0 -7 -9 -21 -20
-30 -11 -10 -20 -21 -20 -26 0 -5 -16 -24 -35 -43 -19 -18 -35 -38 -35 -43 0
-13 -78 -91 -91 -91 -5 0 -9 -7 -9 -16 0 -9 -43 -59 -95 -110 -52 -52 -95 -99
-95 -104 0 -6 -4 -10 -10 -10 -5 0 -63 -54 -129 -120 -65 -66 -126 -120 -135
-120 -9 0 -16 -4 -16 -9 0 -13 -59 -71 -71 -71 -6 0 -25 -16 -43 -35 -19 -19
-37 -35 -40 -35 -4 0 -21 -14 -38 -30 -16 -17 -35 -30 -41 -30 -7 0 -21 -11
-31 -25 -10 -14 -27 -25 -37 -25 -11 0 -19 -5 -19 -10 0 -6 -8 -14 -17 -17
-10 -4 -28 -17 -41 -30 -13 -13 -29 -23 -36 -23 -8 0 -16 -7 -20 -15 -3 -8
-14 -15 -25 -15 -11 0 -22 -9 -26 -20 -3 -11 -12 -20 -20 -20 -7 0 -20 -6 -27
-14 -8 -7 -24 -17 -36 -20 -12 -4 -22 -12 -22 -17 0 -5 -7 -9 -15 -9 -8 0 -15
-4 -15 -10 0 -5 -6 -10 -14 -10 -8 0 -21 -6 -28 -14 -8 -7 -25 -17 -38 -21
-14 -4 -32 -16 -41 -26 -8 -10 -27 -21 -42 -24 -15 -4 -27 -11 -27 -15 0 -4
-16 -11 -35 -14 -19 -4 -35 -11 -35 -16 0 -6 -5 -10 -11 -10 -6 0 -17 -7 -25
-15 -9 -8 -24 -15 -35 -15 -10 0 -19 -4 -19 -10 0 -5 -11 -12 -25 -16 -14 -3
-25 -10 -25 -15 0 -5 -7 -9 -15 -9 -8 0 -15 -4 -15 -9 0 -5 -18 -11 -40 -15
-22 -3 -40 -10 -40 -15 0 -5 -16 -12 -35 -15 -19 -4 -35 -11 -35 -16 0 -6 -7
-10 -15 -10 -8 0 -15 -4 -15 -9 0 -5 -18 -11 -40 -15 -22 -3 -40 -11 -40 -16
0 -5 -18 -13 -40 -16 -22 -4 -40 -10 -40 -15 0 -5 -11 -9 -25 -9 -14 0 -25 -4
-25 -10 0 -5 -18 -13 -40 -16 -22 -4 -40 -10 -40 -14 0 -4 -20 -11 -45 -14
-25 -4 -45 -11 -45 -17 0 -5 -11 -9 -25 -9 -14 0 -25 -4 -25 -9 0 -5 -22 -12
-50 -16 -27 -4 -50 -11 -50 -15 0 -5 -25 -12 -55 -15 -30 -4 -55 -11 -55 -16
0 -5 -11 -9 -25 -9 -14 0 -25 -4 -25 -9 0 -5 -29 -13 -65 -16 -36 -4 -65 -11
-65 -15 0 -4 -31 -11 -70 -14 -38 -4 -70 -11 -70 -17 0 -5 -18 -9 -40 -9 -22
0 -40 -4 -40 -9 0 -5 -43 -12 -95 -16 -52 -4 -95 -11 -95 -15 0 -5 -58 -11
-130 -15 -71 -4 -130 -11 -130 -16 0 -5 -54 -9 -120 -9 -73 0 -120 -4 -120
-10 0 -6 -78 -10 -215 -10 -137 0 -215 4 -215 10 0 6 -45 10 -115 10 -63 0
-115 4 -115 9 0 4 -59 11 -132 15 -73 4 -135 11 -138 15 -3 5 -47 12 -97 16
-51 4 -93 11 -93 16 0 5 -18 9 -40 9 -22 0 -40 4 -40 9 0 5 -33 12 -72 16 -40
4 -76 11 -79 16 -3 5 -29 12 -57 16 -29 3 -52 10 -52 14 0 5 -13 9 -30 9 -16
0 -30 4 -30 10 0 5 -27 12 -60 16 -33 4 -60 10 -60 15 0 4 -20 11 -45 15 -25
3 -45 10 -45 15 0 5 -11 9 -25 9 -14 0 -25 4 -25 9 0 5 -22 12 -50 16 -27 4
-50 11 -50 15 0 5 -18 11 -40 15 -22 4 -40 11 -40 16 0 5 -9 9 -20 9 -11 0
-20 4 -20 9 0 5 -18 12 -40 16 -22 4 -40 10 -40 15 0 4 -16 11 -35 14 -19 4
-35 11 -35 16 0 6 -11 10 -25 10 -14 0 -25 4 -25 9 0 5 -13 12 -30 16 -16 4
-30 10 -30 15 0 5 -13 11 -30 15 -16 4 -30 11 -30 16 0 5 -9 9 -20 9 -11 0
-20 4 -20 9 0 5 -13 12 -30 16 -17 4 -30 10 -30 15 0 5 -13 11 -30 15 -16 4
-30 11 -30 16 0 5 -9 9 -20 9 -11 0 -20 4 -20 9 0 5 -14 12 -30 16 -17 4 -30
11 -30 16 0 5 -11 11 -25 15 -14 3 -25 10 -25 15 0 5 -7 9 -15 9 -8 0 -15 5
-15 10 0 6 -6 10 -14 10 -8 0 -21 6 -28 14 -8 7 -25 17 -38 21 -14 4 -32 16
-40 25 -8 9 -25 20 -37 24 -13 4 -23 11 -23 16 0 4 -11 11 -25 14 -14 4 -25
11 -25 16 0 6 -7 10 -15 10 -8 0 -15 5 -15 10 0 6 -7 10 -15 10 -8 0 -23 9
-32 20 -10 11 -22 20 -28 20 -6 0 -17 9 -25 20 -8 11 -20 20 -27 20 -7 0 -21
9 -30 20 -10 11 -25 20 -35 20 -9 0 -19 9 -23 19 -3 11 -16 23 -28 27 -12 4
-36 21 -53 39 -16 18 -40 36 -52 39 -11 4 -24 16 -27 26 -3 10 -16 22 -28 26
-12 4 -42 28 -67 54 -25 26 -55 50 -67 54 -12 4 -25 16 -28 27 -4 10 -10 19
-15 19 -5 0 -22 15 -39 32 -17 18 -36 38 -41 43 -6 6 -23 22 -38 37 -15 15
-33 33 -40 40 -7 7 -25 26 -41 42 -16 15 -33 33 -39 38 -5 6 -24 24 -41 40
-17 16 -31 33 -31 38 0 5 -9 12 -20 15 -11 3 -20 13 -20 21 0 8 -20 34 -45 58
-25 25 -45 49 -45 56 0 12 -48 60 -61 60 -4 0 -11 10 -15 23 -4 12 -17 32 -30
44 -13 12 -24 27 -24 33 0 6 -11 21 -24 33 -13 12 -26 32 -30 44 -4 12 -15 25
-26 28 -10 3 -21 17 -24 30 -4 14 -11 25 -16 25 -6 0 -10 7 -10 15 0 8 -4 15
-9 15 -5 0 -13 10 -17 22 -3 12 -13 28 -20 36 -8 7 -14 20 -14 27 0 8 -9 17
-20 20 -11 4 -20 15 -20 26 0 11 -6 22 -14 25 -8 3 -17 16 -20 30 -4 13 -11
24 -16 24 -6 0 -10 7 -10 15 0 8 -4 15 -10 15 -5 0 -10 9 -10 20 0 11 -7 23
-15 26 -8 3 -17 21 -21 40 -3 19 -10 34 -15 34 -5 0 -9 6 -9 14 0 8 -7 16 -15
20 -8 3 -15 15 -15 26 0 11 -4 20 -9 20 -5 0 -12 13 -16 30 -4 16 -11 30 -16
30 -5 0 -9 7 -9 15 0 8 -4 15 -10 15 -5 0 -12 16 -16 35 -3 19 -10 35 -14 35
-5 0 -11 13 -15 30 -4 16 -11 30 -16 30 -5 0 -9 7 -9 15 0 8 -4 15 -10 15 -5
0 -12 16 -16 35 -3 19 -10 35 -15 35 -5 0 -12 18 -15 40 -4 22 -10 40 -15 40
-5 0 -9 7 -9 15 0 8 -4 15 -10 15 -5 0 -13 18 -16 40 -4 22 -10 40 -15 40 -5
0 -12 18 -15 40 -4 22 -10 40 -15 40 -5 0 -9 11 -9 25 0 14 -4 25 -10 25 -5 0
-13 18 -16 40 -4 22 -10 40 -15 40 -4 0 -11 20 -15 45 -3 25 -10 45 -15 45 -5
0 -9 11 -9 25 0 14 -4 25 -9 25 -5 0 -13 25 -16 55 -4 30 -11 55 -15 55 -5 0
-12 25 -15 55 -4 30 -11 55 -16 55 -5 0 -9 16 -9 35 0 19 -4 35 -9 35 -5 0
-13 29 -16 65 -4 36 -11 65 -15 65 -4 0 -11 36 -15 80 -4 44 -11 80 -16 80 -5
0 -9 18 -9 39 0 22 -4 41 -9 43 -6 2 -13 50 -17 108 -4 58 -11 107 -15 110 -5
3 -12 95 -15 203 -4 108 -11 197 -16 197 -4 0 -8 83 -8 185 0 102 4 185 8 185
5 0 12 89 15 197 4 108 11 199 16 202 4 3 11 56 15 116 4 61 12 112 17 113 5
2 9 24 9 48 0 24 4 44 9 44 5 0 12 34 16 75 4 41 10 75 15 75 4 0 11 32 14 70
4 39 11 70 17 70 5 0 9 11 9 25 0 14 4 25 9 25 5 0 13 29 16 65 4 36 11 65 15
65 4 0 11 20 14 45 4 25 11 45 17 45 5 0 9 11 9 25 0 14 4 25 9 25 5 0 12 23
16 50 4 28 10 50 15 50 4 0 11 20 14 45 4 25 11 45 17 45 5 0 9 9 9 20 0 11 4
20 9 20 5 0 12 18 16 40 4 22 10 40 15 40 5 0 11 18 15 40 4 22 11 40 16 40 5
0 9 7 9 15 0 8 4 15 9 15 5 0 11 18 15 40 3 22 10 40 15 40 5 0 12 14 16 30 4
17 11 30 16 30 5 0 9 7 9 15 0 8 4 15 9 15 5 0 12 16 15 35 4 19 11 35 16 35
4 0 11 14 15 30 4 17 11 30 16 30 5 0 9 7 9 15 0 8 4 15 9 15 5 0 12 16 15 35
4 19 11 35 15 35 5 0 12 12 16 27 3 15 14 34 24 42 10 9 22 27 26 41 4 13 14
30 21 38 8 7 14 20 14 28 0 8 5 14 10 14 6 0 10 7 10 15 0 8 4 15 9 15 5 0 13
10 17 22 3 12 13 28 20 36 8 7 14 20 14 28 0 8 5 14 10 14 6 0 10 7 10 15 0 8
4 15 9 15 5 0 13 10 17 23 4 12 17 32 30 44 13 12 24 27 24 33 0 5 4 10 10 10
5 0 12 10 15 23 4 13 17 31 31 41 13 11 24 27 24 36 0 10 7 20 15 24 8 3 15
10 15 16 0 6 18 29 40 51 22 22 40 46 40 52 0 7 11 21 25 31 14 10 25 23 25
28 0 13 20 36 72 83 16 13 28 29 28 35 0 13 406 420 419 420 12 0 71 59 71 70
0 5 10 12 22 16 12 4 39 24 61 45 21 22 42 39 48 39 5 0 20 11 33 25 13 14 27
25 31 25 4 0 22 15 39 34 18 18 42 37 54 40 12 4 22 11 22 16 0 4 11 11 24 14
14 3 28 15 31 26 3 11 12 20 20 20 7 0 20 6 27 14 8 7 24 17 36 20 12 4 22 12
22 17 0 5 7 9 15 9 8 0 15 4 15 10 0 5 11 12 25 16 14 3 25 10 25 14 0 4 11
11 25 14 14 4 25 11 25 16 0 6 7 10 15 10 8 0 15 5 15 10 0 6 6 10 14 10 8 0
21 6 28 14 8 7 25 17 38 21 14 4 32 16 41 26 8 10 27 21 42 24 15 4 27 11 27
15 0 4 11 11 25 14 14 4 25 11 25 16 0 6 7 10 15 10 8 0 15 4 15 10 0 5 16 12
35 16 19 3 35 10 35 14 0 5 14 11 30 15 17 4 30 11 30 16 0 5 11 9 25 9 14 0
25 4 25 9 0 5 14 12 30 16 17 4 30 11 30 15 0 5 16 12 35 16 19 3 35 10 35 15
0 5 9 9 20 9 11 0 20 4 20 9 0 5 16 12 35 15 19 4 35 11 35 15 0 5 18 11 40
15 22 3 40 11 40 16 0 6 11 10 25 10 14 0 25 4 25 9 0 6 20 13 45 17 25 3 45
10 45 15 0 5 18 12 40 15 22 4 40 10 40 15 0 5 16 9 35 9 19 0 35 4 35 9 0 6
20 13 45 17 25 3 45 10 45 15 0 4 27 11 60 15 33 4 60 11 60 15 0 5 14 9 30 9
17 0 30 4 30 9 0 5 29 13 65 16 36 4 65 11 65 15 0 4 32 11 70 14 39 4 70 11
70 17 0 5 22 9 49 9 27 0 51 4 53 9 2 5 48 13 103 17 55 4 103 11 106 15 3 5
94 12 202 16 108 3 197 10 197 15 0 13 88 9 93 -4z"/>
<path d="M2998 9091 c-24 -24 -28 -36 -28 -85 0 -31 -4 -56 -9 -56 -4 0 -12
-36 -15 -80 -4 -44 -12 -80 -17 -80 -5 0 -9 -9 -9 -20 0 -11 -4 -20 -9 -20 -5
0 -12 -22 -16 -50 -4 -27 -11 -50 -15 -50 -5 0 -12 -17 -16 -37 -4 -21 -15
-45 -25 -54 -10 -8 -21 -27 -24 -42 -4 -15 -11 -27 -15 -27 -4 0 -11 -12 -15
-27 -3 -15 -14 -34 -24 -42 -10 -9 -21 -26 -25 -38 -4 -13 -11 -23 -16 -23 -4
0 -11 -11 -14 -25 -4 -14 -11 -25 -16 -25 -6 0 -10 -4 -10 -10 0 -5 -18 -28
-40 -50 -22 -22 -40 -42 -40 -45 0 -13 -78 -95 -90 -95 -5 0 -11 -9 -15 -19
-3 -11 -16 -23 -28 -27 -12 -4 -38 -24 -60 -45 -21 -22 -44 -39 -51 -39 -8 0
-16 -7 -20 -15 -3 -8 -14 -15 -25 -15 -11 0 -22 -9 -26 -19 -3 -10 -17 -22
-30 -25 -14 -4 -25 -10 -25 -15 0 -5 -13 -12 -30 -16 -16 -4 -30 -11 -30 -16
0 -5 -9 -9 -20 -9 -11 0 -20 -4 -20 -9 0 -5 -13 -12 -30 -16 -16 -4 -30 -10
-30 -15 0 -5 -13 -11 -30 -15 -16 -4 -30 -11 -30 -16 0 -5 -11 -9 -24 -9 -13
0 -26 -5 -28 -11 -2 -6 -25 -13 -51 -16 -26 -3 -47 -10 -47 -14 0 -5 -11 -9
-24 -9 -13 0 -26 -4 -28 -10 -1 -5 -38 -13 -80 -16 -43 -4 -78 -10 -78 -15 0
-4 -18 -10 -39 -14 -23 -4 -42 -13 -46 -23 -9 -25 7 -2882 17 -2882 4 0 8 -40
8 -90 0 -49 4 -90 9 -90 5 0 12 -54 16 -120 4 -66 10 -120 15 -120 4 0 11 -36
15 -80 4 -44 11 -80 16 -80 5 0 9 -18 9 -40 0 -22 4 -40 9 -40 5 0 13 -29 16
-65 4 -36 11 -65 15 -65 4 0 11 -25 15 -55 3 -30 11 -55 16 -55 5 0 9 -11 9
-25 0 -14 4 -25 9 -25 5 0 12 -22 16 -50 4 -27 11 -50 15 -50 5 0 12 -20 16
-45 3 -25 10 -45 15 -45 5 0 9 -11 9 -25 0 -14 4 -25 9 -25 5 0 11 -18 15 -40
3 -22 10 -40 15 -40 5 0 11 -18 15 -40 3 -22 11 -40 16 -40 6 0 10 -11 10 -25
0 -14 4 -25 9 -25 5 0 12 -13 16 -30 4 -16 11 -30 16 -30 5 0 12 -18 15 -40 4
-22 10 -40 15 -40 5 0 9 -7 9 -15 0 -8 4 -15 9 -15 5 0 12 -16 15 -35 4 -19
11 -35 16 -35 4 0 11 -14 15 -30 4 -17 11 -30 16 -30 5 0 9 -7 9 -15 0 -8 4
-15 9 -15 5 0 12 -15 15 -34 4 -19 13 -37 21 -40 8 -3 15 -15 15 -26 0 -11 5
-20 10 -20 6 0 10 -7 10 -15 0 -8 4 -15 9 -15 5 0 12 -14 16 -30 4 -17 11 -30
16 -30 5 0 11 -11 15 -25 3 -14 10 -25 15 -25 5 0 9 -7 9 -15 0 -8 4 -15 10
-15 5 0 12 -11 16 -25 3 -14 10 -25 14 -25 4 0 11 -11 14 -24 3 -14 15 -27 25
-31 12 -3 21 -19 25 -40 4 -19 11 -35 16 -35 5 0 12 -11 16 -25 3 -13 14 -27
24 -30 11 -3 22 -16 26 -28 4 -11 13 -27 20 -35 8 -7 14 -19 14 -25 0 -7 11
-21 25 -31 14 -10 25 -23 25 -28 0 -5 11 -20 25 -34 14 -14 25 -29 25 -35 0
-5 11 -20 25 -33 14 -13 25 -26 25 -30 0 -4 12 -21 28 -36 38 -41 52 -58 52
-65 0 -3 25 -30 55 -60 30 -29 55 -59 55 -67 1 -7 12 -22 26 -33 14 -11 31
-26 37 -33 7 -7 25 -25 41 -41 15 -16 33 -33 38 -39 6 -5 24 -23 40 -40 17
-16 35 -34 40 -40 6 -5 24 -23 40 -40 17 -16 35 -34 40 -40 6 -5 24 -24 40
-41 16 -17 34 -31 39 -31 5 0 32 -23 59 -50 27 -28 52 -50 55 -50 7 0 25 -15
65 -52 15 -16 31 -28 35 -28 4 0 20 -13 37 -30 16 -16 35 -30 41 -30 7 0 21
-11 31 -25 10 -14 24 -25 30 -25 6 0 18 -9 26 -20 8 -11 20 -20 27 -20 7 0 21
-9 30 -20 10 -11 25 -20 35 -20 9 0 20 -9 23 -20 3 -11 12 -20 20 -20 7 0 20
-6 27 -14 8 -7 24 -17 36 -20 12 -4 22 -12 22 -17 0 -5 7 -9 15 -9 8 0 15 -4
15 -10 0 -5 11 -12 25 -16 14 -3 25 -10 25 -14 0 -4 11 -11 25 -14 14 -4 25
-11 25 -16 0 -6 7 -10 15 -10 8 0 15 -4 15 -9 0 -5 11 -12 25 -15 14 -4 25
-10 25 -15 0 -5 14 -12 30 -16 17 -4 30 -11 30 -16 0 -5 5 -9 11 -9 6 0 17 -7
25 -15 9 -8 26 -15 39 -15 12 0 25 -7 29 -15 3 -8 15 -15 26 -15 11 0 20 -4
20 -10 0 -5 7 -10 15 -10 8 0 15 -4 15 -9 0 -5 14 -12 30 -16 17 -4 30 -10 30
-15 0 -4 18 -10 40 -14 22 -3 40 -11 40 -16 0 -6 7 -10 15 -10 8 0 15 -4 15
-9 0 -5 16 -12 35 -15 19 -4 35 -11 35 -15 0 -5 18 -11 40 -15 22 -3 40 -11
40 -16 0 -6 11 -10 25 -10 14 0 25 -4 25 -10 0 -5 18 -13 40 -16 22 -4 40 -10
40 -15 0 -4 20 -11 45 -15 25 -3 45 -10 45 -15 0 -5 11 -9 25 -9 14 0 25 -4
25 -9 0 -5 23 -12 50 -16 28 -4 50 -11 50 -15 0 -5 29 -12 65 -15 36 -4 65
-11 65 -16 0 -5 9 -9 20 -9 11 0 20 -4 20 -10 0 -5 18 -10 40 -10 22 0 40 5
40 10 0 6 11 10 25 10 14 0 25 4 25 9 0 5 29 12 65 16 36 3 65 10 65 15 0 4
22 11 50 15 28 4 50 11 50 16 0 5 9 9 20 9 11 0 20 4 20 9 0 5 23 12 50 16 28
4 50 10 50 15 0 4 18 10 40 14 22 3 40 11 40 16 0 6 11 10 25 10 14 0 25 4 25
10 0 5 18 13 40 16 22 4 40 10 40 14 0 5 14 11 30 15 17 4 30 11 30 16 0 5 7
9 15 9 8 0 15 4 15 9 0 5 18 12 40 16 22 4 40 10 40 15 0 4 16 11 35 14 19 4
35 11 35 16 0 6 7 10 15 10 8 0 15 4 15 9 0 5 11 12 25 15 14 4 25 11 25 16 0
6 11 10 25 10 14 0 28 7 31 15 4 8 12 15 20 15 8 0 14 4 14 9 0 5 15 12 34 15
19 4 37 13 40 21 3 8 15 15 26 15 11 0 20 5 20 10 0 6 7 10 15 10 8 0 15 4 15
10 0 5 11 12 25 16 14 3 25 10 25 14 0 4 11 11 25 14 14 4 25 11 25 16 0 6 6
10 14 10 8 0 16 7 20 15 3 8 14 15 25 15 10 0 21 7 25 15 3 8 11 15 18 15 8 0
20 9 28 20 8 11 20 20 27 20 7 0 21 9 30 20 10 11 25 20 35 20 9 0 20 9 23 20
3 11 13 20 20 20 8 0 25 11 39 25 14 14 29 25 33 25 5 0 16 8 25 18 22 23 46
42 53 42 3 0 23 18 45 40 22 22 42 40 45 40 13 0 95 78 95 91 0 5 7 9 16 9 20
0 384 364 384 384 0 9 4 16 9 16 12 0 71 59 71 70 0 5 9 12 20 15 11 3 20 13
20 20 0 8 17 31 39 52 21 22 41 48 45 60 4 12 16 25 27 28 10 4 19 12 19 19 0
7 9 23 20 36 11 13 20 29 20 36 0 7 9 15 19 19 11 3 23 16 27 28 4 11 13 27
20 35 8 7 14 19 14 25 0 7 11 21 25 31 14 10 25 25 25 32 0 8 4 14 10 14 5 0
12 11 16 25 3 14 10 25 15 25 5 0 9 7 9 15 0 9 11 26 24 38 13 12 27 33 31 47
4 14 16 32 25 40 9 8 21 26 25 40 4 13 14 30 21 38 8 7 14 20 14 28 0 8 5 14
10 14 6 0 10 7 10 15 0 8 4 15 10 15 5 0 12 15 16 34 3 19 12 37 20 40 8 3 14
12 14 21 0 8 5 15 10 15 6 0 10 9 10 20 0 11 4 20 9 20 5 0 12 13 16 30 4 16
10 30 15 30 5 0 11 13 15 30 4 16 11 30 16 30 5 0 9 9 9 20 0 11 4 20 10 20 5
0 13 18 16 40 4 22 10 40 14 40 5 0 11 14 15 30 4 17 11 30 16 30 5 0 9 7 9
15 0 8 4 15 9 15 5 0 11 18 15 40 3 22 10 40 15 40 5 0 11 18 15 40 3 22 11
40 16 40 6 0 10 11 10 25 0 14 4 25 9 25 5 0 12 23 16 50 4 28 11 50 15 50 5
0 12 20 16 45 3 25 10 45 15 45 5 0 9 11 9 25 0 14 4 25 9 25 5 0 12 23 16 50
4 28 11 50 15 50 5 0 12 29 15 65 4 36 11 65 16 65 5 0 9 14 9 30 0 17 4 30 9
30 5 0 12 35 16 78 4 42 11 79 16 82 4 3 11 47 15 98 4 50 11 92 15 92 5 0 9
29 9 64 0 43 4 66 13 68 9 4 13 207 15 961 2 575 7 957 13 957 5 0 9 227 9
566 0 625 4 590 -65 601 -19 3 -35 9 -35 13 0 4 -36 11 -80 14 -44 4 -80 12
-80 17 0 5 -11 9 -25 9 -14 0 -25 4 -25 9 0 4 -19 11 -42 14 -24 3 -44 11 -46
16 -2 6 -15 11 -28 11 -13 0 -24 4 -24 9 0 5 -13 12 -30 16 -16 4 -30 10 -30
15 0 4 -16 11 -35 14 -19 4 -35 11 -35 16 0 6 -7 10 -15 10 -8 0 -15 4 -15 9
0 5 -13 12 -30 16 -16 4 -30 10 -30 15 0 5 -10 12 -22 16 -13 4 -30 15 -38 24
-8 9 -25 20 -37 24 -13 4 -23 12 -23 17 0 5 -5 9 -12 9 -6 0 -28 18 -49 40
-21 22 -43 40 -48 40 -13 0 -141 128 -141 141 0 5 -18 27 -40 48 -22 21 -40
41 -40 46 0 4 -8 15 -19 24 -10 9 -21 26 -25 39 -4 12 -11 22 -16 22 -4 0 -11
11 -14 25 -4 14 -11 25 -16 25 -6 0 -10 7 -10 15 0 8 -4 15 -9 15 -5 0 -12 14
-16 30 -4 17 -10 30 -15 30 -4 0 -11 11 -14 25 -4 14 -11 25 -16 25 -6 0 -10
11 -10 25 0 14 -4 25 -10 25 -5 0 -13 18 -16 40 -4 22 -10 40 -14 40 -4 0 -11
20 -14 45 -4 25 -11 45 -17 45 -5 0 -9 15 -9 34 0 19 -4 36 -9 38 -5 2 -13 47
-17 102 -6 90 -9 101 -35 127 l-28 29 -2098 -1 -2098 -1 -27 -27z m2173 -461
c12 0 19 -7 19 -20 0 -15 9 -22 30 -27 21 -4 32 -13 36 -29 3 -13 11 -24 18
-24 6 0 20 -11 30 -25 10 -14 25 -25 32 -25 8 0 14 -7 14 -15 0 -8 7 -15 15
-15 8 0 15 -7 15 -15 0 -8 7 -15 15 -15 9 0 19 -8 22 -17 8 -21 40 -53 53 -53
6 0 10 -7 10 -15 0 -8 9 -24 20 -35 11 -11 27 -20 35 -20 8 0 15 -5 15 -11 0
-11 24 -39 34 -39 13 0 46 -41 52 -64 3 -15 15 -27 30 -30 13 -4 24 -13 24
-21 0 -8 8 -15 18 -15 20 0 52 -33 52 -55 0 -8 5 -15 11 -15 12 0 69 -55 69
-66 0 -11 29 -34 42 -34 7 0 22 -11 32 -25 10 -14 25 -25 32 -25 8 0 14 -7 14
-15 0 -19 31 -55 47 -55 7 0 13 -7 13 -15 0 -8 5 -15 10 -15 13 0 60 -46 60
-58 0 -6 7 -12 15 -16 8 -3 15 -12 15 -20 0 -7 11 -17 25 -20 14 -4 25 -13 25
-21 0 -8 7 -15 15 -15 8 0 24 -9 35 -20 11 -11 20 -27 20 -35 0 -8 6 -15 13
-15 16 0 43 -31 52 -59 3 -12 13 -21 21 -21 8 0 14 -4 14 -9 0 -5 14 -12 30
-16 17 -4 30 -12 30 -19 0 -17 34 -56 49 -56 6 0 11 -6 11 -14 0 -7 11 -22 25
-32 14 -10 25 -27 25 -36 0 -11 8 -18 19 -18 23 0 76 -48 85 -78 4 -12 13 -22
21 -22 8 0 17 -9 20 -20 4 -13 18 -23 36 -27 17 -3 29 -12 29 -21 0 -14 17
-32 59 -62 12 -8 21 -18 21 -23 0 -12 48 -57 61 -57 13 0 49 -38 49 -52 0 -4
6 -8 14 -8 8 0 17 -11 20 -25 4 -15 16 -27 31 -31 16 -4 25 -13 25 -26 0 -11
8 -22 20 -25 11 -3 20 -9 20 -14 0 -5 7 -9 15 -9 8 0 15 -6 15 -14 0 -8 7 -16
15 -20 8 -3 15 -12 15 -21 0 -8 7 -15 15 -15 9 0 19 -8 22 -17 9 -23 29 -43
43 -43 16 0 36 -22 44 -47 4 -12 18 -24 31 -27 17 -4 25 -13 25 -27 0 -12 8
-23 20 -26 11 -3 23 -16 26 -29 4 -17 13 -24 31 -24 16 0 27 -7 30 -20 3 -10
14 -22 24 -25 10 -4 19 -11 19 -17 0 -5 14 -23 30 -38 17 -15 30 -33 30 -39 0
-6 12 -14 27 -17 34 -9 53 -27 53 -49 0 -9 9 -19 20 -22 11 -3 20 -9 20 -13 0
-12 37 -50 49 -50 6 0 11 -7 11 -15 0 -8 6 -15 14 -15 8 0 17 -9 21 -19 3 -10
16 -22 29 -25 16 -4 25 -15 29 -36 4 -18 13 -30 23 -30 9 0 18 -9 21 -21 4
-12 17 -22 34 -26 16 -3 29 -12 29 -19 0 -8 5 -14 10 -14 6 0 10 -7 10 -15 0
-9 8 -19 18 -22 22 -9 52 -42 52 -60 0 -7 7 -13 15 -13 8 0 15 -4 15 -9 0 -5
14 -12 30 -16 19 -4 30 -13 30 -24 0 -17 33 -51 50 -51 6 0 10 -7 10 -15 0 -9
7 -18 15 -21 8 -4 15 -13 15 -20 0 -8 14 -17 30 -20 17 -4 30 -12 30 -18 0 -6
11 -20 25 -30 14 -10 25 -27 25 -37 0 -12 10 -21 25 -25 18 -4 28 -15 32 -34
4 -21 12 -29 34 -34 21 -4 29 -11 29 -26 0 -11 5 -20 10 -20 6 0 10 -20 10
-45 0 -25 5 -45 10 -45 6 0 10 -11 10 -25 0 -14 -4 -25 -10 -25 -5 0 -10 -10
-10 -23 0 -12 -9 -29 -20 -37 -11 -8 -20 -20 -20 -27 0 -7 -9 -13 -20 -13 -11
0 -20 -4 -20 -10 0 -5 -9 -10 -20 -10 -11 0 -20 -4 -20 -10 0 -5 -24 -10 -53
-10 -41 0 -56 4 -67 20 -8 12 -26 20 -42 20 -18 0 -28 5 -28 15 0 8 -4 15 -9
15 -5 0 -12 9 -16 19 -3 11 -19 22 -35 26 -17 4 -30 11 -30 16 0 5 -7 9 -15 9
-8 0 -15 8 -15 18 0 18 -33 52 -50 52 -5 0 -12 11 -16 25 -3 14 -10 25 -14 25
-5 0 -12 9 -15 20 -4 12 -15 20 -30 20 -12 0 -25 7 -29 15 -3 8 -12 15 -21 15
-8 0 -15 9 -15 20 0 17 -7 20 -50 20 -43 0 -50 -3 -50 -20 0 -11 -7 -20 -15
-20 -13 0 -15 -36 -15 -265 0 -170 -4 -265 -10 -265 -7 0 -10 -366 -10 -1077
0 -1103 -3 -1273 -25 -1273 -7 0 -15 -22 -18 -52 -4 -29 -11 -54 -17 -56 -5
-2 -10 -12 -10 -23 0 -10 -6 -19 -14 -19 -8 0 -17 -13 -21 -30 -4 -16 -11 -30
-16 -30 -5 0 -9 -9 -9 -19 0 -11 -9 -23 -20 -26 -11 -3 -20 -10 -20 -15 0 -5
-9 -12 -20 -15 -11 -3 -20 -13 -20 -21 0 -21 -20 -39 -53 -48 -15 -3 -27 -13
-27 -20 0 -8 -15 -17 -35 -20 -21 -4 -35 -13 -35 -21 0 -10 -10 -15 -30 -15
-19 0 -30 -5 -30 -14 0 -9 -18 -15 -52 -20 -69 -8 -3997 -8 -4065 0 -35 5 -53
11 -53 20 0 9 -11 14 -30 14 -19 0 -30 5 -30 14 0 9 -15 17 -40 21 -24 4 -40
12 -40 21 0 7 -12 17 -27 20 -32 8 -53 27 -53 46 0 15 -27 41 -53 51 -9 3 -17
16 -17 27 0 11 -4 20 -10 20 -5 0 -10 7 -10 15 0 8 -4 15 -10 15 -5 0 -10 7
-10 15 0 8 -4 15 -10 15 -5 0 -10 9 -10 20 0 11 -4 20 -10 20 -5 0 -10 9 -10
20 0 11 -4 20 -10 20 -5 0 -10 15 -10 34 0 19 -6 36 -12 38 -10 4 -14 250 -16
1176 -3 1016 -5 1172 -17 1172 -13 0 -15 40 -15 265 0 170 -4 265 -10 265 -5
0 -10 9 -10 20 0 18 -7 20 -55 20 -42 0 -55 -3 -55 -15 0 -21 -36 -55 -59 -55
-11 0 -23 -9 -26 -20 -3 -11 -13 -20 -21 -20 -8 0 -14 -6 -14 -13 0 -18 -30
-51 -53 -60 -9 -3 -17 -14 -17 -22 0 -22 -20 -40 -52 -48 -15 -4 -30 -16 -33
-27 -3 -11 -13 -20 -21 -20 -8 0 -14 -7 -14 -15 0 -10 -10 -15 -29 -15 -21 0
-32 -6 -36 -20 -5 -17 -15 -20 -66 -20 -33 0 -59 4 -59 10 0 6 -9 10 -20 10
-11 0 -20 5 -20 10 0 6 -7 10 -15 10 -8 0 -15 7 -15 15 0 8 -5 15 -11 15 -6 0
-18 7 -27 17 -13 13 -16 34 -15 102 1 49 6 87 12 89 6 2 11 12 11 22 0 12 10
21 30 25 18 4 30 13 30 22 0 16 36 53 52 53 4 0 8 9 8 20 0 11 4 20 8 20 14 0
52 36 52 49 0 6 9 11 21 11 12 0 23 8 26 19 3 11 15 22 28 25 13 3 25 16 29
30 3 13 15 26 26 29 12 3 20 14 20 26 0 14 9 23 27 27 33 9 48 22 57 52 4 12
11 22 17 22 14 0 49 33 49 47 0 7 7 13 15 13 8 0 15 6 15 14 0 8 14 17 30 21
17 4 30 12 30 19 0 6 9 19 20 29 11 9 20 25 20 36 0 12 9 21 24 25 14 3 28 15
31 26 3 11 15 20 26 20 10 0 19 5 19 11 0 13 25 39 39 39 5 0 12 9 16 19 3 11
15 23 26 26 10 4 19 13 19 21 0 21 20 39 51 47 17 4 29 16 33 32 4 14 11 25
17 25 14 0 39 26 39 40 0 6 7 13 15 16 8 4 15 13 15 20 0 8 14 17 30 21 17 3
30 11 30 17 0 6 11 20 25 30 14 10 25 27 25 36 0 11 10 20 25 24 15 4 27 16
31 31 3 14 12 25 20 25 8 0 14 5 14 10 0 6 7 10 15 10 8 0 15 5 15 10 0 6 7
10 15 10 8 0 15 7 15 15 0 7 6 18 13 22 8 4 16 16 20 26 3 9 13 17 22 17 8 0
15 5 15 11 0 15 23 36 46 41 11 2 20 13 22 26 2 13 13 24 27 28 14 3 27 15 31
26 7 24 68 88 84 88 5 0 10 5 10 10 0 6 6 10 14 10 8 0 18 10 22 22 7 24 28
48 41 48 13 0 43 38 43 55 0 8 9 15 19 15 17 0 101 70 101 84 0 16 59 66 77
66 15 0 22 9 27 30 3 18 12 30 21 30 9 0 19 8 22 18 9 22 29 42 42 42 6 0 13
11 17 25 4 16 16 27 33 32 29 7 61 38 61 60 0 7 5 13 10 13 15 0 50 38 50 55
0 8 7 15 15 15 9 0 18 7 21 15 4 8 12 15 20 15 8 0 14 6 14 14 0 8 11 17 25
20 14 4 25 13 25 22 0 9 9 18 20 21 11 3 20 11 20 18 0 19 35 55 54 55 9 0 16
7 16 15 0 8 4 15 8 15 16 0 52 37 52 54 0 9 4 16 10 16 5 0 20 11 34 25 14 14
30 25 36 25 16 0 36 22 44 48 4 12 12 22 17 22 13 0 49 38 49 51 0 15 39 49
57 49 7 0 13 6 13 14 0 8 11 17 24 20 17 4 26 15 31 36 4 16 12 30 19 30 7 0
22 11 32 25 10 14 24 25 31 25 7 0 13 7 13 15 0 8 6 15 14 15 8 0 16 7 20 15
3 8 12 15 21 15 8 0 15 7 15 15 0 19 31 55 47 55 7 0 13 7 13 15 0 9 7 18 15
21 8 4 15 12 15 20 0 8 9 14 20 14 11 0 20 7 20 15 0 8 4 15 9 15 11 0 71 55
71 65 0 12 42 45 57 45 7 0 13 9 13 19 0 21 40 32 94 25 16 -2 37 -4 47 -4z"/>
<path d="M5070 8050 c0 -12 -7 -20 -16 -20 -18 0 -74 -53 -74 -70 0 -5 -7 -10
-15 -10 -20 0 -95 -74 -95 -94 0 -9 -5 -16 -11 -16 -6 0 -17 -7 -25 -15 -9 -8
-24 -15 -35 -15 -10 0 -19 -6 -19 -13 0 -18 -34 -57 -49 -57 -6 0 -11 -7 -11
-15 0 -9 -7 -18 -15 -21 -8 -4 -15 -12 -15 -19 0 -7 -13 -15 -29 -18 -19 -4
-31 -14 -35 -30 -3 -14 -15 -27 -26 -30 -12 -3 -20 -14 -20 -26 0 -14 -8 -23
-25 -27 -14 -3 -25 -10 -25 -15 0 -5 -7 -9 -15 -9 -8 0 -15 -6 -15 -12 0 -7
-16 -26 -35 -43 -19 -16 -35 -35 -35 -42 0 -7 -7 -13 -15 -13 -8 0 -15 -4 -15
-10 0 -5 -7 -10 -15 -10 -8 0 -15 -4 -15 -10 0 -5 -7 -10 -15 -10 -8 0 -15 -6
-15 -14 0 -7 -11 -22 -25 -32 -14 -10 -25 -26 -25 -36 0 -9 -9 -20 -20 -23
-11 -3 -20 -11 -20 -16 0 -5 -9 -9 -20 -9 -13 0 -22 -9 -26 -25 -3 -14 -11
-25 -16 -25 -12 0 -48 -39 -48 -50 0 -4 -9 -10 -20 -13 -12 -3 -20 -14 -20
-26 0 -14 -6 -21 -20 -21 -23 0 -70 -45 -70 -66 0 -8 -5 -14 -11 -14 -13 0
-49 -38 -49 -52 0 -4 -8 -8 -18 -8 -10 0 -24 -9 -32 -20 -8 -11 -20 -20 -27
-20 -7 0 -13 -7 -13 -15 0 -8 -9 -23 -20 -32 -11 -10 -20 -25 -20 -34 0 -11
-11 -20 -30 -24 -16 -4 -30 -11 -30 -16 0 -5 -7 -9 -15 -9 -8 0 -15 -7 -15
-15 0 -9 -7 -18 -15 -21 -8 -4 -15 -12 -15 -20 0 -8 -7 -14 -15 -14 -9 0 -19
-8 -22 -17 -9 -23 -29 -43 -43 -43 -13 0 -40 -25 -40 -37 0 -4 -11 -17 -25
-27 -14 -10 -25 -27 -25 -36 0 -11 -10 -20 -25 -24 -14 -4 -25 -11 -25 -16 0
-6 -9 -10 -20 -10 -11 0 -20 -6 -20 -14 0 -8 -7 -16 -15 -20 -8 -3 -15 -12
-15 -21 0 -8 -7 -15 -15 -15 -9 0 -19 -8 -22 -17 -9 -23 -29 -43 -43 -43 -14
0 -34 -20 -43 -42 -3 -10 -11 -18 -17 -18 -16 0 -37 -23 -42 -46 -2 -10 -12
-20 -23 -23 -11 -2 -27 -12 -36 -22 -9 -11 -21 -19 -27 -19 -7 0 -14 -11 -18
-25 -3 -14 -10 -25 -14 -25 -5 0 -11 -9 -15 -19 -3 -11 -19 -22 -35 -26 -21
-5 -30 -13 -30 -26 0 -10 -4 -19 -10 -19 -6 0 -19 -9 -30 -20 -20 -20 -20 -33
-20 -970 0 -838 -2 -950 -15 -950 -13 0 -15 -78 -15 -645 0 -567 2 -645 15
-645 10 0 15 -11 15 -35 0 -19 4 -35 10 -35 5 0 12 -16 16 -35 3 -20 12 -35
20 -35 8 0 14 -6 14 -13 0 -18 34 -57 49 -57 6 0 11 -4 11 -10 0 -5 7 -10 15
-10 8 0 15 -7 15 -15 0 -10 10 -15 29 -15 16 0 31 -5 33 -10 5 -15 3851 -15
3856 0 2 5 17 10 33 10 19 0 29 5 29 15 0 8 8 15 18 15 10 0 24 9 32 20 8 11
20 20 27 20 7 0 15 11 19 25 3 14 10 25 14 25 4 0 11 16 14 35 4 21 13 35 21
35 10 0 15 11 15 35 0 19 5 35 10 35 7 0 10 222 10 645 0 423 -3 645 -10 645
-7 0 -10 325 -10 955 0 768 -2 955 -13 955 -16 0 -47 36 -47 54 0 7 -13 16
-29 19 -18 4 -32 14 -36 27 -3 11 -13 20 -21 20 -8 0 -14 6 -14 13 0 18 -34
57 -49 57 -6 0 -11 4 -11 9 0 5 -9 11 -20 14 -12 3 -20 14 -20 26 0 12 -4 21
-10 21 -15 0 -50 33 -50 47 0 7 -7 13 -15 13 -8 0 -15 5 -15 10 0 6 -7 10 -15
10 -8 0 -15 5 -15 10 0 6 -7 10 -15 10 -8 0 -15 7 -15 15 0 9 -7 18 -15 21 -8
4 -15 12 -15 19 0 8 -9 17 -20 20 -11 3 -20 13 -20 21 0 8 -7 14 -15 14 -21 0
-55 31 -55 51 0 10 -11 20 -25 23 -15 4 -27 16 -31 31 -3 14 -12 25 -20 25 -8
0 -14 5 -14 10 0 6 -5 10 -11 10 -13 0 -39 25 -39 39 0 5 -9 13 -20 16 -11 3
-20 12 -20 20 0 8 -9 17 -20 20 -11 3 -20 11 -20 16 0 17 -23 35 -53 43 -18 4
-27 13 -27 27 0 12 -8 23 -20 26 -10 3 -22 15 -26 26 -8 25 -28 47 -43 47 -6
0 -11 5 -11 10 0 6 -6 10 -14 10 -8 0 -18 9 -21 20 -3 11 -11 20 -16 20 -15 0
-35 23 -43 48 -4 12 -14 22 -22 22 -8 0 -17 7 -20 15 -4 8 -17 15 -30 15 -16
0 -24 6 -24 17 0 9 -20 35 -44 57 -24 23 -46 51 -50 64 -4 13 -15 22 -27 22
-10 0 -19 4 -19 10 0 5 -11 12 -24 16 -16 4 -26 15 -30 34 -3 17 -14 31 -26
35 -11 3 -20 11 -20 16 0 14 -26 39 -40 39 -14 0 -34 20 -43 43 -3 9 -12 17
-18 17 -15 0 -49 39 -49 57 0 7 -9 13 -20 13 -11 0 -20 4 -20 10 0 5 -11 12
-25 16 -14 3 -25 13 -25 23 0 9 -9 24 -20 34 -11 9 -20 23 -20 31 0 8 -13 17
-30 21 -16 4 -30 13 -30 21 0 8 -7 14 -15 14 -9 0 -19 8 -22 18 -9 22 -29 42
-42 42 -6 0 -13 11 -17 24 -3 15 -16 27 -31 31 -31 7 -53 28 -53 50 0 9 -9 19
-20 22 -11 3 -20 9 -20 13 0 14 -38 50 -54 50 -9 0 -16 5 -16 11 0 18 -60 69
-81 69 -12 0 -19 7 -19 20 0 17 -7 20 -40 20 -33 0 -40 -3 -40 -20z m280
-1434 c167 -72 216 -98 218 -113 2 -11 -3 -25 -10 -30 -20 -17 -409 -183 -428
-183 -28 0 -465 178 -475 194 -7 11 -5 20 5 30 14 14 444 194 465 195 6 0 107
-42 225 -93z m-615 -207 c66 -28 174 -73 240 -100 l120 -48 3 -312 c2 -316 0
-339 -34 -339 -17 0 -465 188 -478 200 -9 8 -9 627 0 642 9 14 27 9 149 -43z
m935 -269 c3 -203 1 -319 -5 -327 -12 -13 -458 -203 -479 -203 -34 0 -36 23
-34 339 l3 312 120 48 c66 27 172 72 235 99 63 28 124 50 135 49 19 -2 20 -11
25 -317z m-1740 -244 c167 -72 216 -98 218 -113 2 -11 -3 -25 -10 -30 -20 -17
-409 -183 -428 -183 -28 0 -465 178 -475 194 -7 11 -5 20 5 30 14 14 444 194
465 195 6 0 107 -42 225 -93z m2840 0 c167 -72 216 -98 218 -113 2 -11 -3 -25
-10 -30 -20 -17 -409 -183 -428 -183 -28 0 -465 178 -475 194 -7 11 -5 20 5
30 14 14 444 194 465 195 6 0 107 -42 225 -93z m-870 -56 c27 -27 26 -81 0
-105 -30 -27 -88 -25 -111 4 -23 28 -24 69 -3 99 20 29 85 31 114 2z m-1421
-16 c26 -34 27 -68 1 -94 -27 -27 -65 -35 -101 -20 -52 22 -64 69 -28 114 16
21 29 26 64 26 35 0 48 -5 64 -26z m-1164 -135 c66 -28 174 -73 240 -100 l120
-48 3 -312 c2 -316 0 -339 -34 -339 -17 0 -465 188 -478 200 -9 8 -9 627 0
642 9 14 27 9 149 -43z m935 -269 c3 -203 1 -319 -5 -327 -12 -13 -458 -203
-479 -203 -34 0 -36 23 -34 339 l3 312 120 48 c66 27 172 72 235 99 63 28 124
50 135 49 19 -2 20 -11 25 -317z m1905 269 c66 -28 174 -73 240 -100 l120 -48
3 -312 c2 -316 0 -339 -34 -339 -17 0 -465 188 -478 200 -9 8 -9 627 0 642 9
14 27 9 149 -43z m935 -269 c3 -203 1 -319 -5 -327 -12 -13 -458 -203 -479
-203 -34 0 -36 23 -34 339 l3 312 120 48 c66 27 172 72 235 99 63 28 124 50
135 49 19 -2 20 -11 25 -317z m-1919 91 c31 -32 35 -50 17 -84 -26 -50 -77
-61 -122 -26 -37 29 -37 89 0 118 37 29 70 26 105 -8z m179 -295 c167 -72 216
-98 218 -113 2 -11 -3 -25 -10 -30 -20 -17 -409 -183 -428 -183 -28 0 -465
178 -475 194 -7 11 -5 20 5 30 14 14 444 194 465 195 6 0 107 -42 225 -93z
m-876 -57 c19 -15 26 -29 26 -56 0 -51 -23 -73 -76 -73 -34 0 -47 5 -63 26
-28 35 -26 69 4 99 30 31 73 32 109 4z m1379 -1 c54 -28 64 -93 21 -127 -31
-25 -55 -26 -93 -6 -50 25 -57 91 -15 124 30 24 55 26 87 9z m-1118 -149 c66
-28 174 -73 240 -100 l120 -48 3 -312 c2 -316 0 -339 -34 -339 -17 0 -465 188
-478 200 -9 8 -9 627 0 642 9 14 27 9 149 -43z m935 -269 c3 -203 1 -319 -5
-327 -12 -13 -458 -203 -479 -203 -34 0 -36 23 -34 339 l3 312 120 48 c66 27
172 72 235 99 63 28 124 50 135 49 19 -2 20 -11 25 -317z m-1902 33 c52 -71
-51 -163 -116 -103 -38 36 -27 102 22 128 24 12 76 -2 94 -25z m2829 5 c49
-46 14 -128 -54 -128 -41 0 -83 37 -83 73 0 13 9 36 21 51 27 34 82 36 116 4z
m-2667 -302 c167 -72 216 -98 218 -113 2 -11 -3 -25 -10 -30 -20 -17 -409
-183 -428 -183 -28 0 -465 178 -475 194 -7 11 -5 20 5 30 14 14 444 194 465
195 6 0 107 -42 225 -93z m2840 -20 c167 -72 216 -98 218 -113 2 -11 -3 -25
-10 -30 -20 -17 -409 -183 -428 -183 -28 0 -465 178 -475 194 -7 11 -5 20 5
30 14 14 444 194 465 195 6 0 107 -42 225 -93z m-2321 -16 c31 -16 46 -65 31
-100 -14 -35 -37 -50 -74 -50 -38 0 -55 10 -71 41 -20 38 -19 62 6 93 22 28
72 36 108 16z m1448 -22 c48 -45 13 -128 -54 -128 -31 0 -83 51 -83 81 0 61
89 92 137 47z m-2582 -149 c66 -28 174 -73 240 -100 l120 -48 3 -312 c2 -316
0 -339 -34 -339 -17 0 -465 188 -478 200 -9 8 -9 627 0 642 9 14 27 9 149 -43z
m935 -269 c3 -203 1 -319 -5 -327 -12 -13 -458 -203 -479 -203 -34 0 -36 23
-34 339 l3 312 120 48 c66 27 172 72 235 99 63 28 124 50 135 49 19 -2 20 -11
25 -317z m1905 249 c66 -28 174 -73 240 -100 l120 -48 3 -312 c2 -316 0 -339
-34 -339 -17 0 -465 188 -478 200 -9 8 -9 627 0 642 9 14 27 9 149 -43z m935
-269 c3 -203 1 -319 -5 -327 -12 -13 -458 -203 -479 -203 -34 0 -36 23 -34
339 l3 312 120 48 c66 27 172 72 235 99 63 28 124 50 135 49 19 -2 20 -11 25
-317z m-1920 120 c25 -25 27 -86 3 -112 -23 -25 -87 -24 -113 2 -27 27 -26 77
2 107 27 29 80 31 108 3z m180 -344 c167 -72 216 -98 218 -113 2 -11 -3 -25
-10 -30 -20 -17 -409 -183 -428 -183 -28 0 -465 178 -475 194 -7 11 -5 20 5
30 14 14 444 194 465 195 6 0 107 -42 225 -93z m-865 -81 c33 -33 32 -70 -4
-106 -31 -31 -59 -36 -94 -17 -52 27 -62 83 -22 123 33 34 87 34 120 0z m1405
-5 c30 -30 27 -83 -6 -109 -31 -25 -55 -26 -93 -6 -47 24 -55 74 -19 112 28
30 89 32 118 3z m-1155 -121 c66 -28 174 -73 240 -100 l120 -48 3 -312 c2
-316 0 -339 -34 -339 -17 0 -465 188 -478 200 -9 8 -9 627 0 642 9 14 27 9
149 -43z m935 -269 c3 -203 1 -319 -5 -327 -12 -13 -458 -203 -479 -203 -34 0
-36 23 -34 339 l3 312 120 48 c66 27 172 72 235 99 63 28 124 50 135 49 19 -2
20 -11 25 -317z"/>
<path d="M4971 6575 c-85 -34 -161 -67 -169 -72 -11 -6 31 -27 154 -77 l170
-68 163 69 162 70 -128 56 c-71 31 -144 63 -163 70 -34 14 -40 12 -189 -48z"/>
<path d="M4642 6114 l3 -258 193 -82 192 -82 -2 260 -3 260 -174 74 c-95 40
-182 76 -192 79 -19 6 -19 -2 -17 -251z"/>
<path d="M5410 6291 l-185 -79 -3 -260 -2 -260 192 82 193 82 3 257 c1 141 -1
257 -5 257 -5 -1 -91 -36 -193 -79z"/>
<path d="M3551 5855 c-85 -34 -161 -67 -169 -72 -11 -6 31 -27 154 -77 l170
-68 163 69 162 70 -128 56 c-71 31 -144 63 -163 70 -34 14 -40 12 -189 -48z"/>
<path d="M6391 5855 c-85 -34 -161 -67 -169 -72 -11 -6 31 -27 154 -77 l170
-68 163 69 162 70 -128 56 c-71 31 -144 63 -163 70 -34 14 -40 12 -189 -48z"/>
<path d="M4405 5780 c-3 -5 1 -10 10 -10 9 0 13 5 10 10 -3 6 -8 10 -10 10 -2
0 -7 -4 -10 -10z"/>
<path d="M3222 5394 l3 -258 193 -82 192 -82 -2 260 -3 260 -174 74 c-95 40
-182 76 -192 79 -19 6 -19 -2 -17 -251z"/>
<path d="M3990 5571 l-185 -79 -3 -260 -2 -260 192 82 193 82 3 257 c1 141 -1
257 -5 257 -5 -1 -91 -36 -193 -79z"/>
<path d="M6062 5394 l3 -258 193 -82 192 -82 -2 260 -3 260 -174 74 c-95 40
-182 76 -192 79 -19 6 -19 -2 -17 -251z"/>
<path d="M6830 5571 l-185 -79 -3 -260 -2 -260 192 82 193 82 3 257 c1 141 -1
257 -5 257 -5 -1 -91 -36 -193 -79z"/>
<path d="M5110 5460 c0 -5 5 -10 10 -10 6 0 10 5 10 10 0 6 -4 10 -10 10 -5 0
-10 -4 -10 -10z"/>
<path d="M4971 5175 c-85 -34 -161 -67 -169 -72 -11 -6 31 -27 154 -77 l170
-68 163 69 162 70 -128 56 c-71 31 -144 63 -163 70 -34 14 -40 12 -189 -48z"/>
<path d="M4415 5100 c3 -5 8 -10 11 -10 2 0 4 5 4 10 0 6 -5 10 -11 10 -5 0
-7 -4 -4 -10z"/>
<path d="M5810 5090 c0 -5 5 -10 10 -10 6 0 10 5 10 10 0 6 -4 10 -10 10 -5 0
-10 -4 -10 -10z"/>
<path d="M4642 4714 l3 -258 193 -82 192 -82 -2 260 -3 260 -174 74 c-95 40
-182 76 -192 79 -19 6 -19 -2 -17 -251z"/>
<path d="M5410 4891 l-185 -79 -3 -260 -2 -260 192 82 193 82 3 257 c1 141 -1
257 -5 257 -5 -1 -91 -36 -193 -79z"/>
<path d="M3551 4435 c-85 -34 -161 -67 -169 -72 -11 -6 31 -27 154 -77 l170
-68 163 69 162 70 -128 56 c-71 31 -144 63 -163 70 -34 14 -40 12 -189 -48z"/>
<path d="M6391 4415 c-85 -34 -161 -67 -169 -72 -11 -6 31 -27 154 -77 l170
-68 163 69 162 70 -128 56 c-71 31 -144 63 -163 70 -34 14 -40 12 -189 -48z"/>
<path d="M4396 4383 c-11 -11 -6 -23 9 -23 8 0 15 4 15 9 0 13 -16 22 -24 14z"/>
<path d="M3222 3974 l3 -258 193 -82 192 -82 -2 260 -3 260 -174 74 c-95 40
-182 76 -192 79 -19 6 -19 -2 -17 -251z"/>
<path d="M3990 4151 l-185 -79 -3 -260 -2 -260 192 82 193 82 3 257 c1 141 -1
257 -5 257 -5 -1 -91 -36 -193 -79z"/>
<path d="M6062 3954 l3 -258 193 -82 192 -82 -2 260 -3 260 -174 74 c-95 40
-182 76 -192 79 -19 6 -19 -2 -17 -251z"/>
<path d="M6830 4131 l-185 -79 -3 -260 -2 -260 192 82 193 82 3 257 c1 141 -1
257 -5 257 -5 -1 -91 -36 -193 -79z"/>
<path d="M5110 4039 c0 -5 5 -7 10 -4 6 3 10 8 10 11 0 2 -4 4 -10 4 -5 0 -10
-5 -10 -11z"/>
<path d="M4971 3715 c-85 -34 -161 -67 -169 -72 -11 -6 31 -27 154 -77 l170
-68 163 69 162 70 -128 56 c-71 31 -144 63 -163 70 -34 14 -40 12 -189 -48z"/>
<path d="M4410 3620 c0 -5 7 -10 15 -10 8 0 15 5 15 10 0 6 -7 10 -15 10 -8 0
-15 -4 -15 -10z"/>
<path d="M5825 3620 c-3 -5 -1 -10 4 -10 6 0 11 5 11 10 0 6 -2 10 -4 10 -3 0
-8 -4 -11 -10z"/>
<path d="M4642 3254 l3 -258 193 -82 192 -82 -2 260 -3 260 -174 74 c-95 40
-182 76 -192 79 -19 6 -19 -2 -17 -251z"/>
<path d="M5410 3431 l-185 -79 -3 -260 -2 -260 192 82 193 82 3 257 c1 141 -1
257 -5 257 -5 -1 -91 -36 -193 -79z"/>
</g>
</svg>
